<svg xmlns="http://www.w3.org/2000/svg" viewBox="0 0 40 40" width="40" height="40">
  <!-- Anvil base -->
  <path d="M8 28 L32 28 L34 32 L6 32 Z" fill="#D4760A"/>
  <!-- Anvil top -->
  <path d="M12 24 L28 24 L30 28 L10 28 Z" fill="#B8650A"/>
  <!-- Flame/spark rising from anvil -->
  <path d="M20 6 C20 6 14 14 16 18 C17 20 19 19 19 17 C19 17 17 22 20 24 C23 22 21 17 21 17 C21 19 23 20 24 18 C26 14 20 6 20 6Z" fill="#D4760A"/>
  <!-- Spark dots -->
  <circle cx="15" cy="10" r="1.2" fill="#E8943A" opacity="0.8"/>
  <circle cx="25" cy="8" r="1" fill="#E8943A" opacity="0.7"/>
  <circle cx="23" cy="13" r="0.8" fill="#E8943A" opacity="0.6"/>
</svg>